<svg width="162" height="45" viewBox="0 0 162 45" fill="none" xmlns="http://www.w3.org/2000/svg">
<path d="M65.824 13.196C65.0493 13.196 64.3307 13.0747 63.668 12.832C63.0147 12.58 62.4453 12.2253 61.96 11.768C61.484 11.3107 61.1107 10.774 60.84 10.158C60.5693 9.53267 60.434 8.84667 60.434 8.1C60.434 7.35333 60.5693 6.672 60.84 6.056C61.1107 5.43067 61.484 4.88933 61.96 4.432C62.4453 3.97467 63.0147 3.62467 63.668 3.382C64.3307 3.13 65.0493 3.004 65.824 3.004C66.7293 3.004 67.5367 3.16267 68.246 3.48C68.9647 3.79733 69.562 4.25467 70.038 4.852L68.274 6.448C67.9567 6.07467 67.6067 5.79 67.224 5.594C66.8507 5.398 66.4307 5.3 65.964 5.3C65.5627 5.3 65.194 5.36533 64.858 5.496C64.522 5.62667 64.2327 5.818 63.99 6.07C63.7567 6.31267 63.57 6.60667 63.43 6.952C63.2993 7.29733 63.234 7.68 63.234 8.1C63.234 8.52 63.2993 8.90267 63.43 9.248C63.57 9.59333 63.7567 9.892 63.99 10.144C64.2327 10.3867 64.522 10.5733 64.858 10.704C65.194 10.8347 65.5627 10.9 65.964 10.9C66.4307 10.9 66.8507 10.802 67.224 10.606C67.6067 10.41 67.9567 10.1253 68.274 9.752L70.038 11.348C69.562 11.936 68.9647 12.3933 68.246 12.72C67.5367 13.0373 66.7293 13.196 65.824 13.196ZM77.5258 11.796V5.398H74.7118L74.6698 6.462C74.6511 7.03133 74.6138 7.56333 74.5578 8.058C74.5111 8.55267 74.4411 9.00533 74.3478 9.416C74.2638 9.82667 74.1471 10.1813 73.9978 10.48C73.8578 10.7693 73.6851 10.9933 73.4798 11.152L70.5258 10.802C70.8525 10.8113 71.1185 10.704 71.3238 10.48C71.5385 10.2467 71.7065 9.92467 71.8278 9.514C71.9585 9.10333 72.0518 8.618 72.1078 8.058C72.1731 7.498 72.2198 6.88667 72.2478 6.224L72.3598 3.2H80.2558V11.796H77.5258ZM70.2318 14.974V10.802H81.5858V14.974H79.0518V13H72.7798V14.974H70.2318ZM85.4593 6.994H90.0093V9.066H85.4593V6.994ZM85.6553 10.858H90.7793V13H82.9113V3.2H90.5973V5.342H85.6553V10.858ZM92.7646 13.168C92.5779 13.168 92.3773 13.154 92.1626 13.126C91.9573 13.098 91.7379 13.056 91.5046 13L91.6586 10.732C91.7893 10.76 91.9153 10.774 92.0366 10.774C92.4193 10.774 92.7086 10.6247 92.9046 10.326C93.1006 10.018 93.2359 9.58867 93.3106 9.038C93.3946 8.48733 93.4459 7.84333 93.4646 7.106L93.6046 3.2H101.501V13H98.7706V4.782L99.3726 5.398H95.4106L95.9706 4.754L95.9006 6.994C95.8726 7.946 95.8073 8.80467 95.7046 9.57C95.6019 10.326 95.4386 10.9747 95.2146 11.516C94.9906 12.048 94.6779 12.4587 94.2766 12.748C93.8846 13.028 93.3806 13.168 92.7646 13.168ZM102.617 13L106.943 3.2H109.673L114.013 13H111.129L107.741 4.558H108.833L105.445 13H102.617ZM104.983 11.096L105.697 9.052H110.485L111.199 11.096H104.983ZM117.684 6.994H122.234V9.066H117.684V6.994ZM117.88 10.858H123.004V13H115.136V3.2H122.822V5.342H117.88V10.858ZM124.583 13V3.2H126.865L130.911 9.864H129.707L133.669 3.2H135.951L135.979 13H133.417L133.403 7.078H133.837L130.883 12.034H129.651L126.613 7.078H127.131V13H124.583ZM61.05 43V33.2H65.81C66.986 33.2 67.896 33.424 68.54 33.872C69.1933 34.3107 69.52 34.936 69.52 35.748C69.52 36.5413 69.2167 37.1667 68.61 37.624C68.0033 38.072 67.1913 38.296 66.174 38.296L66.454 37.638C67.5553 37.638 68.414 37.8573 69.03 38.296C69.6553 38.7253 69.968 39.36 69.968 40.2C69.968 41.0587 69.632 41.74 68.96 42.244C68.2973 42.748 67.336 43 66.076 43H61.05ZM63.78 41.012H65.964C66.3653 41.012 66.664 40.928 66.86 40.76C67.0653 40.5827 67.168 40.326 67.168 39.99C67.168 39.654 67.0653 39.4067 66.86 39.248C66.664 39.08 66.3653 38.996 65.964 38.996H63.78V41.012ZM63.78 37.12H65.544C65.936 37.12 66.23 37.0407 66.426 36.882C66.622 36.714 66.72 36.4713 66.72 36.154C66.72 35.8367 66.622 35.5987 66.426 35.44C66.23 35.272 65.936 35.188 65.544 35.188H63.78V37.12ZM71.468 43V33.2H73.75L77.796 39.864H76.592L80.554 33.2H82.836L82.864 43H80.302L80.288 37.078H80.722L77.768 42.034H76.536L73.498 37.078H74.016V43H71.468ZM87.4964 36.994H92.0464V39.066H87.4964V36.994ZM87.6924 40.858H92.8164V43H84.9484V33.2H92.6344V35.342H87.6924V40.858ZM99.1697 43.196C98.395 43.196 97.6764 43.0747 97.0137 42.832C96.3604 42.58 95.791 42.2253 95.3057 41.768C94.8297 41.3107 94.4564 40.774 94.1857 40.158C93.915 39.5327 93.7797 38.8467 93.7797 38.1C93.7797 37.3533 93.915 36.672 94.1857 36.056C94.4564 35.4307 94.8297 34.8893 95.3057 34.432C95.791 33.9747 96.3604 33.6247 97.0137 33.382C97.6764 33.13 98.395 33.004 99.1697 33.004C100.075 33.004 100.882 33.1627 101.592 33.48C102.31 33.7973 102.908 34.2547 103.384 34.852L101.62 36.448C101.302 36.0747 100.952 35.79 100.57 35.594C100.196 35.398 99.7764 35.3 99.3097 35.3C98.9084 35.3 98.5397 35.3653 98.2037 35.496C97.8677 35.6267 97.5784 35.818 97.3357 36.07C97.1024 36.3127 96.9157 36.6067 96.7757 36.952C96.645 37.2973 96.5797 37.68 96.5797 38.1C96.5797 38.52 96.645 38.9027 96.7757 39.248C96.9157 39.5933 97.1024 39.892 97.3357 40.144C97.5784 40.3867 97.8677 40.5733 98.2037 40.704C98.5397 40.8347 98.9084 40.9 99.3097 40.9C99.7764 40.9 100.196 40.802 100.57 40.606C100.952 40.41 101.302 40.1253 101.62 39.752L103.384 41.348C102.908 41.936 102.31 42.3933 101.592 42.72C100.882 43.0373 100.075 43.196 99.1697 43.196ZM106.724 43V34.782L107.34 35.398H103.714V33.2H112.45V35.398H108.838L109.454 34.782V43H106.724ZM116.276 36.994H120.826V39.066H116.276V36.994ZM116.472 40.858H121.596V43H113.728V33.2H121.414V35.342H116.472V40.858Z" fill="#DFDFEE"/>
<path d="M61.456 28.168C61.2693 28.168 61.0687 28.154 60.854 28.126C60.6487 28.098 60.4293 28.056 60.196 28L60.35 25.732C60.4807 25.76 60.6067 25.774 60.728 25.774C61.1107 25.774 61.4 25.6247 61.596 25.326C61.792 25.018 61.9273 24.5887 62.002 24.038C62.086 23.4873 62.1373 22.8433 62.156 22.106L62.296 18.2H70.192V28H67.462V19.782L68.064 20.398H64.102L64.662 19.754L64.592 21.994C64.564 22.946 64.4987 23.8047 64.396 24.57C64.2933 25.326 64.13 25.9747 63.906 26.516C63.682 27.048 63.3693 27.4587 62.968 27.748C62.576 28.028 62.072 28.168 61.456 28.168ZM72.8483 25.802C73.3989 25.9607 73.8469 26.012 74.1923 25.956C74.5469 25.8907 74.8596 25.6573 75.1303 25.256L75.6063 24.556L75.8443 24.29L78.8963 18.2H81.5983L77.5383 25.774C77.1369 26.5207 76.6563 27.0993 76.0963 27.51C75.5456 27.9207 74.9389 28.154 74.2763 28.21C73.6136 28.266 72.9183 28.1447 72.1903 27.846L72.8483 25.802ZM75.8023 26.516L71.3223 18.2H74.2483L77.3143 24.556L75.8023 26.516ZM88.8386 24.528C88.3812 24.696 87.9472 24.8267 87.5366 24.92C87.1352 25.004 86.7479 25.046 86.3746 25.046C85.0026 25.046 83.9526 24.7193 83.2246 24.066C82.5059 23.4127 82.1466 22.4607 82.1466 21.21V18.2H84.8766V20.902C84.8766 21.5367 85.0306 22.0127 85.3386 22.33C85.6559 22.638 86.1179 22.792 86.7246 22.792C87.1166 22.792 87.4852 22.7547 87.8306 22.68C88.1852 22.596 88.4979 22.47 88.7686 22.302L88.8386 24.528ZM88.4606 28V18.2H91.1906V28H88.4606ZM99.1823 25.802L98.5803 26.418V18.2H101.31V26.418L100.68 25.802H104.474L103.844 26.418V18.2H106.574V28H93.2883V18.2H96.0183V26.418L95.4163 25.802H99.1823ZM111.217 21.994H115.767V24.066H111.217V21.994ZM111.413 25.858H116.537V28H108.669V18.2H116.355V20.342H111.413V25.858Z" fill="#6565B1"/>
<g clip-path="url(#clip0_101_2)">
<path fill-rule="evenodd" clip-rule="evenodd" d="M30.672 15.111C29.9717 14.4971 28.9646 14.5111 28.3867 14.6894C28.7653 14.2246 29.6469 13.8435 29.9068 13.7972C30.1046 13.8714 30.672 14.4545 30.672 15.111ZM32.9079 12.5687C32.4474 10.1052 26.7221 11.7374 23.8388 10.691C23.7835 11.4092 24.7264 12.5599 25.6283 12.9858C24.0866 14.3237 22.7025 17.0194 22.4233 20.3128C22.1449 17.0194 20.7607 14.3237 19.2191 12.9858C20.1209 12.5599 21.0646 11.4092 21.0086 10.691C18.1253 11.7374 12.3999 10.1052 11.9386 12.5687C11.8416 13.09 12.0924 13.8846 12.3635 14.113C12.4119 13.9478 12.665 13.4073 13.4631 13.2861C17.4968 12.6767 20.8645 18.8934 17.8246 21.407C17.7783 21.4452 17.8043 21.5157 17.8671 21.5157H26.9809C27.0429 21.5157 27.0691 21.4452 27.0236 21.407C23.9828 18.8934 27.3506 12.6767 31.3842 13.2861C32.183 13.4073 32.4353 13.9478 32.4839 14.113C32.7549 13.8846 33.0057 13.0902 32.9079 12.5687ZM33.889 6.91443C33.8166 6.68169 36.1816 6.67587 36.1816 8.15616C36.1816 9.1483 34.7669 9.6182 34.7669 10.6477C34.7669 11.1273 35.2828 11.479 35.4411 11.479C35.0767 9.82604 36.5834 10.691 36.9902 11.0002C36.1817 8.77734 38.0019 8.79137 37.8227 7.77214C37.698 7.05981 36.116 7.27501 35.5434 6.91443C34.5274 6.27487 33.3255 3.78622 32.5333 6.27487C34.01 7.64591 33.1507 9.66374 31.2761 9.66374C31.2761 9.66374 31.2656 9.95963 31.2828 9.98314C33.5188 9.87368 34.2981 8.23039 33.889 6.91443ZM7.80267 11.0002C8.20964 10.691 9.7161 9.82604 9.35264 11.479C9.51009 11.479 10.026 11.1273 10.026 10.6477C10.026 9.6182 8.6112 9.1483 8.6112 8.15616C8.6112 6.6758 10.9763 6.68169 10.9039 6.91443C10.4955 8.23032 11.275 9.87375 13.5109 9.98314C13.5273 9.95963 13.5168 9.66374 13.5168 9.66374C11.643 9.66374 10.7837 7.64577 12.2597 6.27487C11.4675 3.78622 10.2656 6.27487 9.24957 6.91443C8.67701 7.27508 7.09498 7.05981 6.9703 7.77214C6.79179 8.79137 8.6112 8.77741 7.80267 11.0002ZM14.1514 15.1109C14.8524 14.497 15.8595 14.511 16.4367 14.6894C16.0597 14.2245 15.1766 13.8434 14.9174 13.7971C14.7196 13.8713 14.1514 14.4545 14.1514 15.1109ZM23.4871 1.32985L22.3964 0L21.3058 1.32985L22.3965 2.72945L23.4871 1.32985ZM29.7135 5.35106L28.9378 4.40593L28.1629 5.35106L28.9378 6.2748L29.7135 5.35106ZM36.0047 32.6692L35.0215 31.6286L34.0383 32.6692L35.0215 33.5819L36.0047 32.6692ZM16.6307 5.35092L15.855 4.40579L15.0801 5.35092L15.855 6.27473L16.6307 5.35092ZM14.4089 9.983H17.3019C19.7341 9.983 20.8286 8.49015 21.1593 7.19552H23.6342C23.965 8.49022 25.0586 9.98307 27.4917 9.98307H30.3847C30.3847 9.98307 30.8907 9.29649 31.0176 8.95654C31.4746 7.73313 30.8907 7.16254 30.0389 7.16254L28.9377 8.16051L27.8365 7.16254C26.9847 7.16254 26.4009 7.73313 26.8578 8.95654C26.9161 9.11301 27.0557 9.34273 27.1878 9.54467C26.1612 9.40364 24.851 8.701 24.5636 7.19552C24.5636 7.19552 25.3221 5.99056 25.5125 5.50297C26.1964 3.74953 25.3229 3.03271 24.0455 3.03271L22.3963 4.9714L20.7473 3.03271C19.4699 3.03271 18.5964 3.74946 19.281 5.50297C19.4708 5.99063 20.23 7.19559 20.23 7.19559C19.9418 8.70107 18.6316 9.40371 17.6051 9.54474C17.738 9.3428 17.8768 9.11301 17.9351 8.95661C18.3911 7.7332 17.8089 7.16261 16.9562 7.16261L15.8551 8.16058L14.754 7.16261C13.9015 7.16261 13.3191 7.7332 13.7753 8.95661C13.9022 9.29656 14.4089 9.983 14.4089 9.983ZM44.3184 18.9506C43.7598 19.2333 40.484 20.768 36.2876 20.2003C36.331 20.0002 36.3679 19.7986 36.3981 19.596C39.191 19.2619 41.4613 18.7883 42.9081 17.9835C44.5573 17.0655 45.2784 14.8744 44.446 13.2442C44.4244 13.2031 44.3647 13.1958 44.3348 13.2301C43.8788 13.7553 41.0104 16.8754 36.4915 17.8454C36.4799 17.6113 36.4585 17.3779 36.4273 17.1456C38.6221 15.9009 40.7648 14.4667 41.7854 13.1553C43.3278 11.1725 43.1859 8.6436 41.7182 7.35409C41.703 7.34102 41.6828 7.33514 41.663 7.33796C41.6431 7.34079 41.6254 7.35203 41.6144 7.36883C41.1501 8.13469 36.8037 15.1599 32.0316 18.1926C31.9734 18.2299 31.9147 18.2664 31.8555 18.3021C31.7188 18.3851 31.7039 18.5627 31.8204 18.6685C32.3705 19.1671 32.7125 19.861 32.7125 20.6314C32.7125 21.9707 31.68 23.0847 30.3153 23.3262C29.6217 23.4606 28.6205 23.4217 27.6589 23.1038C27.6156 23.0898 27.5709 23.1184 27.5709 23.1618V27.404C27.5709 27.4722 27.6747 27.4891 27.6993 27.4236C28.2838 25.8751 30.0337 25.546 30.799 25.546C31.0745 27.2012 31.5664 28.5723 32.2055 29.3102C33.246 30.5093 34.9453 30.4925 35.6822 29.6634C35.6944 29.6497 35.6996 29.6312 35.6964 29.6131C35.6931 29.5951 35.6819 29.5795 35.6657 29.5708C35.2328 29.322 32.7556 27.8012 32.2598 25.3089C32.4556 25.2413 32.6466 25.1649 32.8296 25.0746C33.6291 26.3979 34.793 27.5765 35.7299 28.0266C37.3037 28.7816 38.7445 28.4143 39.3836 27.3092C39.4067 27.2703 39.3784 27.2218 39.3313 27.2174C38.3578 27.1395 35.3701 26.2833 34.0979 24.1971C34.2436 24.0634 34.3862 23.9239 34.5191 23.7756C35.8501 24.7889 37.7323 25.6848 39.0798 25.8676C40.6565 26.0821 42.443 25.5791 42.4864 23.7455C42.4871 23.7087 42.4543 23.6786 42.4155 23.6809C41.8548 23.7146 38.1436 23.8762 35.4993 22.3583C35.5911 22.1837 35.6768 22.0059 35.7561 21.8252C35.7561 21.8252 39.7517 22.7696 41.645 22.4567C43.5263 22.1461 44.6283 20.7436 44.4155 18.9989C44.4095 18.9554 44.3587 18.93 44.3184 18.9506ZM9.03668 21.8254C9.11621 22.0061 9.2021 22.1839 9.29419 22.3585C6.65069 23.8756 2.94102 23.7155 2.37815 23.6811C2.33857 23.6788 2.30574 23.7104 2.30644 23.7464C2.35064 25.5793 4.13636 26.0822 5.71299 25.8679C7.0599 25.685 8.94273 24.7891 10.2738 23.7758C10.4074 23.9241 10.5493 24.0636 10.6948 24.1973C9.42196 26.2833 6.435 27.1396 5.46145 27.2175C5.41444 27.2219 5.38679 27.2703 5.40925 27.3093C6.04832 28.4144 7.48917 28.7816 9.0637 28.0267C9.99992 27.5765 11.1638 26.398 11.9634 25.0748C12.1469 25.165 12.3381 25.2414 12.5329 25.309C12.0372 27.8013 9.56012 29.3221 9.12706 29.5709C9.11107 29.5797 9.09993 29.5953 9.09674 29.6133C9.09355 29.6312 9.09866 29.6497 9.11064 29.6635C9.84752 30.4926 11.5475 30.5094 12.5881 29.3103C13.2273 28.5723 13.7184 27.2013 13.9939 25.5461C14.7598 25.5461 16.509 25.8752 17.0936 27.4238C17.119 27.4892 17.2227 27.4722 17.2227 27.404V23.1618C17.2227 23.1185 17.1772 23.0899 17.1339 23.1038C16.1723 23.4217 15.1712 23.4607 14.4784 23.3262C13.113 23.0847 12.0805 21.9708 12.0805 20.6314C12.0805 19.861 12.4231 19.1663 12.9726 18.6677C13.0897 18.5627 13.0741 18.3849 12.9382 18.302C12.8785 18.2663 12.8193 18.2298 12.7605 18.1926C7.99149 15.1614 3.64724 8.14128 3.17916 7.37016C3.15741 7.33416 3.10521 7.32687 3.07307 7.35472C1.60758 8.64493 1.46501 11.1732 3.0074 13.1551C4.02796 14.4665 6.17048 15.9007 8.3647 17.1455C8.33375 17.3777 8.31259 17.6111 8.30127 17.8452C3.7861 16.8759 0.920029 13.7608 0.45939 13.2322C0.428798 13.1962 0.367472 13.2035 0.346633 13.2447C-0.484131 14.8756 0.236964 17.0653 1.88467 17.9832C3.33149 18.788 5.60178 19.2617 8.39466 19.5958C8.42484 19.7984 8.46167 20 8.50511 20.2001C4.31318 20.7671 1.03875 19.2361 0.475879 18.951C0.43406 18.9298 0.38326 18.9562 0.378067 19.0003C0.166166 20.745 1.26721 22.1461 3.14857 22.4567C5.04108 22.7696 9.03668 21.8254 9.03668 21.8254ZM35.0214 34.922L33.5656 33.7765C32.9848 34.1224 32.5578 34.6718 32.392 35.3157C31.5164 35.4384 29.1288 34.9082 29.3609 34.5565C31.9776 30.876 29.9761 28.6848 27.5707 28.8067V31.2785C27.5707 32.0723 26.8779 32.7155 26.0246 32.7155H24.3636C23.172 32.7155 22.3963 33.9132 22.3963 33.9132C22.3963 33.9132 21.6208 32.7155 20.4292 32.7155H18.7681C17.9142 32.7155 17.2229 32.0723 17.2229 31.2785V28.8068C14.8174 28.6849 12.8143 30.8762 15.4319 34.5566C15.6618 34.9046 13.2078 35.462 12.0567 35.321C11.7536 35.0066 11.316 34.8084 10.8263 34.8084C10.6181 34.8085 10.4115 34.8455 10.2163 34.9179C10.2163 34.9179 5.693 30.6353 5.61013 30.5934L5.64746 30.5067C5.90497 30.025 5.51085 29.5 5.26155 29.5368C5.55112 29.1894 5.56466 27.6686 3.958 27.3169C4.00501 27.6224 4.02887 28.2459 4.02887 28.2459C4.02887 28.2459 2.7889 27.5753 2.16625 28.1539C1.61909 28.8017 2.37836 29.9766 2.37836 29.9766C2.37836 29.9766 1.74378 29.992 1.43098 29.9655C1.89092 31.5208 3.4333 31.4107 3.76701 31.1038C3.74526 31.3513 4.30308 31.7037 4.77558 31.4209L4.98313 31.3204C5.01975 31.3695 9.42519 35.5317 9.42519 35.5317C9.22283 35.8321 9.12657 36.2007 9.19294 36.5936C9.29749 37.2075 9.809 37.7164 10.4622 37.8485C10.9235 37.9411 11.3573 37.8514 11.7052 37.648L12.8713 38.7305C12.9752 38.8245 13.1155 38.8831 13.2722 38.8722C13.5574 38.853 13.7709 38.6217 13.7493 38.3567C13.7403 38.237 13.6791 38.1343 13.5947 38.0564C13.5761 38.0358 12.407 36.9504 12.407 36.9504C13.3714 36.274 15.1684 35.7976 16.66 35.7976C16.9221 35.7976 17.0452 35.5759 16.9549 35.3584C16.2792 33.7333 17.7321 32.5563 19.2349 33.5145C19.8904 33.9324 20.5564 34.7556 21.0581 36.1287C18.5922 36.7258 15.4962 38.3705 14.8699 40.1661C14.6287 40.8593 15.4253 41.8043 16.3928 41.9946C16.4099 41.9984 16.4279 41.9951 16.4426 41.9856C16.4573 41.9761 16.4676 41.961 16.4712 41.9439C16.9767 39.2635 19.8591 37.2661 21.3589 36.9268C21.4344 37.1288 21.4097 37.0635 21.4851 37.2646C19.8516 38.0372 18.2674 39.6666 17.815 41.6037C17.6075 42.4908 18.5966 43.2905 19.4134 43.5094C19.4544 43.5203 19.4948 43.4917 19.497 43.4521C19.6523 41.0024 20.734 38.922 21.703 37.9755C21.7296 38.1605 21.7495 38.3464 21.7628 38.5328C21.7628 38.5328 20.7707 41.2976 20.7707 43.3148C20.7707 44.2532 22.1652 44.9082 22.3713 45C22.6288 44.9082 24.0227 44.2532 24.0227 43.3148C24.0227 41.2975 23.0305 38.5328 23.0305 38.5328C23.044 38.3464 23.0642 38.1605 23.091 37.9755C24.0593 38.922 25.1417 41.0016 25.2963 43.4512C25.2985 43.4909 25.3396 43.5203 25.3798 43.5093C26.1974 43.2906 27.1859 42.4909 26.979 41.6038C26.5257 39.6667 24.9424 38.0373 23.3089 37.2648C23.3835 37.0635 23.3589 37.1289 23.4343 36.9269C24.9349 37.2662 27.8167 39.2634 28.3221 41.9438C28.3257 41.9609 28.336 41.9759 28.3508 41.9854C28.3655 41.9949 28.3834 41.9982 28.4005 41.9945C29.3673 41.8044 30.1653 40.8592 29.9227 40.1661C29.2979 38.3706 26.2011 36.7259 23.7353 36.1288C24.2376 34.7556 24.9035 33.9324 25.559 33.5146C27.0611 32.5564 28.5139 33.7335 27.8383 35.3586C27.7479 35.5759 27.8703 35.7976 28.1332 35.7976C29.8203 35.7976 31.8987 36.4071 32.7213 37.2244C33.247 38.0131 34.2183 38.5176 35.3142 38.4095C36.5595 38.2877 37.5748 37.3521 37.7152 36.1957C37.8376 35.1822 37.3136 34.2724 36.4782 33.7768L35.0214 34.922ZM24.2911 27.5398C24.81 27.3476 25.623 27.5032 25.5954 28.2522C25.5887 28.4218 25.8269 28.4218 25.844 28.2484C25.9993 27.1272 25.2415 26.804 24.4487 26.9355C24.3502 26.5499 24.2696 26.2129 24.1777 25.8788C24.1046 25.6087 24.0777 25.1012 24.3905 25.1012C24.5593 25.1012 24.4914 25.5734 24.4757 25.7767C24.4615 25.9551 24.5257 26.0631 24.6706 26.0683C24.7609 26.0719 24.8737 25.9567 24.9408 25.8802C25.3948 25.3669 25.5001 24.5725 24.9685 24.1892C24.5236 23.8675 23.4097 24.1069 23.1035 24.5651C23.0573 24.3925 22.8363 24.1076 22.7302 23.9834C22.6273 23.8624 22.6004 23.7794 22.743 23.6729C22.8102 23.6215 23.0132 23.4196 23.0132 23.211C23.0132 23.0877 22.9177 22.86 22.6139 22.86C22.3742 22.86 22.1077 23.026 22.1077 23.3961C22.1077 23.4784 22.1278 23.5666 22.1808 23.6613C22.0292 23.6362 21.6179 23.6465 21.4067 23.6987L24.3279 31.7153C25.1641 31.3026 25.777 30.649 25.777 29.9478C25.777 29.35 24.8967 29.5483 24.469 30.0146C24.3316 29.2568 24.2092 28.557 24.0756 27.8593C24.0391 27.6669 24.1366 27.5979 24.2911 27.5398ZM20.1604 22.0943L20.7741 23.7993C20.2486 23.9242 19.4035 24.3074 19.4035 24.8148C19.4035 25.4905 20.5987 25.9303 21.29 25.8774C21.2557 26.0316 21.2953 26.1689 21.4028 26.2945C21.152 26.2945 20.6787 26.4112 20.5233 26.5786C20.1568 26.2372 19.5834 26.1131 19.3109 26.3209C19.0369 26.5302 19.0288 26.8849 19.3147 27.2858C19.5139 27.5634 19.5887 27.8373 19.3647 28.1589C20.1978 28.1589 19.8909 27.0758 20.2172 27.0758C20.1747 27.2858 20.2008 27.5289 20.2956 27.7984C20.3584 27.9775 20.3584 28.1046 20.2509 28.2771C19.9821 28.7068 19.5641 29.6937 19.6208 30.5859C19.3476 30.5843 19.2087 30.5175 19.305 30.1445C19.3408 30.0056 19.255 29.9065 19.1416 30.0777C19.0161 30.2664 18.9556 30.5888 18.9556 30.7267C18.9556 31.5213 19.9022 31.6814 20.2635 31.5133C21.3088 32.5247 23.3618 32.2549 24.0494 31.9157L20.4346 21.9972C20.3606 21.81 20.0955 21.8996 20.1604 22.0943ZM20.035 30.2642C19.9603 29.8559 20.5285 29.126 21.2512 28.4218C21.0974 28.8807 21.1929 29.6716 21.4945 29.9441C20.9704 29.9441 20.3477 30.0424 20.035 30.2642Z" fill="#DFDFEE"/>
</g>
<defs>
<clipPath id="clip0_101_2">
<rect width="45" height="45" fill="white"/>
</clipPath>
</defs>
</svg>
